# xmcd
#
# Track frame offsets: 
#        150
#        22655
#        40985
#        64226
#        81144
#        103145
#        118995
#        135002
#        151787
#        163568
#        186606
#        206669
#        224238
#        247040
#        263346
#
# Disc length: 3744 seconds
#
# Revision: 0
# Processed by: cddbd v1.5.2PL0 Copyright (c) Steve Scherf et al.
# Submitted via: ExactAudioCopy v0.95b3
#
DISCID=d20e9e0f
DTITLE=Various Artist - This Is Country CD1
DYEAR=2008
DGENRE=Country
TTITLE0=Emmylou Harris, Ryan Adams - Oh My Sweet Carolina
TTITLE1=Alison Krauss - Ghost in This House
TTITLE2=Kenny Chesney - The Road and the Radio
TTITLE3=Trisha Yearwood - Believe Me Baby (I Lied)
TTITLE4=Brad Paisley - Alcohol
TTITLE5=Nanci Griffith - When I Dream
TTITLE6=Toby Keith - Courtesy of the Red, White and Blue (The Angry Am
TTITLE6=erican)
TTITLE7=Patty Loveless - Cheap Whiskey
TTITLE8=Lorrie Morgan - Eight Days a Week
TTITLE9=Alan Jackson - Where Were You (When the World Stopped Turning)
TTITLE10=Béla Fleck - Deviation
TTITLE11=Allison Moorer - A Soft Place to Fall
TTITLE12=Joe Ely - All That You Need
TTITLE13=Jimmie Dale Gilmore - Train of Love
TTITLE14=Cowboy Junkies - My Little Basquiat
EXTD=
EXTT0=
EXTT1=
EXTT2=
EXTT3=
EXTT4=
EXTT5=
EXTT6=
EXTT7=
EXTT8=
EXTT9=
EXTT10=
EXTT11=
EXTT12=
EXTT13=
EXTT14=
PLAYORDER=
